<!-- ;;; https://stackoverflow.com/questions/60821098/render-javascript-in-svg/60821486#60821486

#|
Open this file:

<rect id="rectG" x="0" y="0" width="50" height="50" fill="yellow" transform="translate(100 200) scale(0.1 -0.1) "/>

<rect id="rectG"/>


<script type="text/javascript"><![CDATA[
var x = document.getElementById("pathG");
bb=x.getBBox();
var rect = document.getElementById("rectG");
rect.setAttribute('x', bb.x);
rect.setAttribute('y', bb.y);
rect.setAttribute('width', bb.width);
rect.setAttribute('height', bb.height);
]]></script>

 with the glyph path-d, in Firefox and then issue in firefox-console:

document.documentElement.outerHTML

and save the outputed coordinates of the <rect> element.

 -->

<!-- width="793.70081" height="1122.51965" -->
<!--  width="1300" height="1601.98" viewBox="0 0 1300 1601.98" -->
<svg version="1.1" id="toplevel" xmlns="http://www.w3.org/2000/svg" xmlns:xlink="http://www.w3.org/1999/xlink">
  
  <path id="gl"
	d="M447 -252c-245 0 -364 165 -364 339c0 202 153 345 297 464c12 10 11 12 9 24c-7 41 -14 106 -14 164c0 104 24 229 98 311c20 22 51 48 65 48c11 0 37 -28 52 -50c41 -60 65 -146 65 -233c0 -153 -82 -280 -190 -381c-6 -6 -8 -7 -6 -19l25 -145c3 -18 3 -18 29 -18
c147 0 241 -113 241 -241c0 -113 -67 -198 -168 -238c-14 -6 -15 -5 -13 -17c11 -62 29 -157 29 -214c0 -162 -119 -209 -244 -209c-37 0 -69 2 -95 12c-62 24 -67 103 -44 176c32 102 98 162 175 162c102 0 114 -97 86 -184c-19 -61 -51 -107 -89 -134c-2 -1 -2 -3 -2 -5
c0 -3 3 -4 8 -4c7 0 18 2 32 7c27 9 129 33 129 181c0 47 -15 134 -27 201c-2 12 -4 11 -15 9c-20 -4 -46 -6 -69 -6zM256 252c-83 -94 -93 -173 -93 -232c0 -139 113 -236 288 -236c20 0 40 2 56 5c15 3 16 3 14 14l-50 298c-2 11 -4 12 -20 8c-61 -17 -100 -60 -100 -117
c0 -46 30 -89 72 -107c7 -3 15 -6 15 -13c0 -6 -4 -11 -12 -11c-7 0 -19 3 -27 6c-68 23 -115 87 -115 177c0 85 57 164 145 194c18 6 18 5 15 24l-21 128c-2 11 -4 12 -14 4c-47 -38 -93 -75 -153 -142zM420 691c0 -32 2 -66 6 -92c2 -13 6 -14 13 -8
c79 69 174 159 174 270c0 55 -27 82 -60 82c-61 0 -133 -96 -133 -252zM524 117c-12 1 -13 -2 -11 -14l49 -285c2 -12 4 -12 16 -6c56 28 94 79 94 142c0 88 -67 156 -148 163zM0 -643c0 8 4 12 12 13l32 3c7 0 8 3 11 9l61 192c1 4 2 7 2 10c0 4 -2 6 -5 6
c-4 0 -7 -2 -12 -8l-32 -37c-6 -5 -10 -9 -17 -9c-8 0 -14 7 -14 13c0 5 2 10 7 15l96 108c4 5 8 8 14 8c10 0 16 -8 27 -8c10 0 21 8 31 8c6 0 9 -4 9 -9c0 -3 -1 -6 -3 -10l-86 -276c-3 -7 -4 -12 3 -12l30 -3c8 -1 13 -5 13 -13c0 -7 -5 -12 -14 -12h-151
c-10 0 -14 5 -14 12zM296 -490c-20 -61 -34 -149 9 -149c41 0 76 78 99 149c20 62 34 149 -10 149c-40 0 -75 -78 -98 -149zM645 -319c0 11 7 16 19 16c7 0 13 -3 13 -10c0 -40 -4 -127 -4 -154c0 -7 1 -10 6 -10c4 0 11 4 17 8c11 7 23 11 38 11c28 0 52 -17 52 -50
c0 -40 -23 -75 -88 -118c-18 -12 -23 -23 -37 -23c-10 0 -13 6 -14 15c-2 19 -2 279 -2 315zM673 -595c0 -12 0 -16 6 -16c7 0 23 15 38 38c11 17 15 34 15 49s-5 32 -22 32c-31 0 -37 -36 -37 -60v-43z"></path>







  
  <script type="text/javascript"><![CDATA[
  var x = document.getElementById("gl");
  var r=x.getBoundingClientRect();
  
  console.log(r);
  ]]></script>
</svg>
