<?xml version="1.0" encoding="UTF-8" standalone="yes"?>
<!-- Generated by SMT/XML-UTILS -->
<svg xmlns="http://www.w3.org/2000/svg" xmlns:xlink="http://www.w3.org/1999/xlink" width="793.7008" height="1122.5197">
  <g transform="translate(0 0) scale(1 1)">
    <line x1="0" x2="30" y1="-10" y2="-10" stroke="blue"/>
    <!-- <rect x="0" width="300" height="300" fill="green"/> -->
    <!-- <g transform="translate(0 0) scale(.5 1)"> -->
    <!--   <rect x="0" width="200" height="200" fill="orange"/> -->
    <!--   <g transform="translate(0 0) scale(1 -1)" stroke-width="4"> -->
    <!-- 	<rect x="0" width="100" height="100" fill="red"/> -->
    <!-- 	<line x1="0" x2="30" y1="-10" y2="-10" stroke="blue" /> -->
    <!-- 	<circle cx="0" cy="0" r="10" fill="yellow" fill-opacity=".4"/> -->

    <!-- <!-\-       <path d="M71 70v-169l69 28v168zM140 -\-> -->
    <!-- <!-\- 203v177h28v-165l42 17v-105l-42 -18v-169l42 18v-105l-42 -\-> -->
    <!-- <!-\- -18v-173h-28v161l-69 -27v-176h-28v164l-43 -16v105l43 17v169l-43 -\-> -->
    <!-- <!-\- -17v106l43 15v175h28v-162z"/> -\-> -->
    <!-- 	  </g> -->
    <!-- </g> -->
  </g>
  <line x1="0" x2="20" y1="0" y2="12" stroke="black" stroke-width="1"/>
  <rect x="37.5" width="50" height="1" fill="black"/>
  <rect x="37.5" width="1" height="400" fill="black"/>
</svg>
